<?xml version="1.0" standalone="no"?>
<!DOCTYPE svg PUBLIC "-//W3C//DTD SVG 20010904//EN"
 "http://www.w3.org/TR/2001/REC-SVG-20010904/DTD/svg10.dtd">
<svg version="1.0" xmlns="http://www.w3.org/2000/svg"
 width="260.000000pt" height="260.000000pt" viewBox="0 0 260.000000 260.000000"
 preserveAspectRatio="xMidYMid meet">
<metadata>
Created by potrace 1.11, written by Peter Selinger 2001-2013
</metadata>
<g transform="translate(0.000000,260.000000) scale(0.100000,-0.100000)"
fill="#000000" stroke="none">
<path d="M0 1300 l0 -1300 1300 0 1300 0 0 1300 0 1300 -1300 0 -1300 0 0
-1300z m1125 635 c120 -31 234 -107 286 -191 21 -34 22 -35 36 -14 43 61 201
97 314 70 160 -38 299 -163 299 -270 0 -25 4 -30 25 -30 40 0 116 -41 162 -86
81 -81 123 -198 123 -340 0 -151 -44 -261 -140 -347 -91 -82 -44 -78 -936 -75
l-789 3 -56 28 c-107 52 -187 164 -216 301 -44 212 70 441 252 503 41 13 46
18 41 38 -9 34 13 133 40 186 89 177 345 279 559 224z"/>
<path d="M630 1305 c-10 -24 -25 -64 -31 -87 -16 -54 -13 -52 -39 -38 -65 35
-180 -81 -180 -183 0 -76 65 -96 125 -37 l35 34 0 -27 c0 -34 35 -52 64 -33
30 19 32 36 4 34 -21 -3 -23 1 -21 34 1 20 25 105 53 188 27 83 50 153 50 155
0 3 -9 5 -20 5 -15 0 -26 -13 -40 -45z m-71 -159 c15 -18 -15 -101 -54 -152
-29 -38 -67 -44 -73 -10 -7 34 21 108 53 142 35 37 56 42 74 20z"/>
<path d="M1933 1303 c-19 -7 -16 -53 3 -60 35 -13 72 39 42 58 -14 10 -26 10
-45 2z"/>
<path d="M712 1181 c-11 -7 -11 -12 -2 -28 10 -15 7 -35 -19 -112 -17 -51 -29
-97 -25 -102 14 -23 36 -4 63 56 45 99 77 135 115 132 27 -2 31 1 34 26 7 60
-52 42 -94 -29 -31 -52 -38 -53 -22 -1 16 51 -11 83 -50 58z"/>
<path d="M995 1176 c-89 -40 -140 -176 -87 -229 38 -37 162 -15 162 28 0 19
-4 19 -41 -1 -45 -23 -83 -15 -87 18 -3 23 1 27 36 33 97 16 152 95 102 145
-23 23 -43 25 -85 6z m53 -45 c2 -13 -5 -32 -15 -43 -21 -23 -73 -52 -80 -44
-11 11 9 60 38 88 33 33 52 33 57 -1z"/>
<path d="M1223 1165 c-47 -28 -93 -108 -93 -160 0 -75 68 -101 120 -45 l28 30
5 -29 c7 -34 37 -45 66 -24 27 18 27 33 1 33 -34 0 -33 25 4 116 27 66 33 90
23 96 -18 11 -25 10 -35 -8 -9 -16 -11 -16 -33 0 -31 21 -36 20 -86 -9z m85
-33 c4 -29 -39 -120 -72 -151 -73 -69 -73 74 0 147 37 37 67 39 72 4z"/>
<path d="M1463 1179 c-8 -8 -9 -16 -1 -28 8 -13 2 -38 -26 -108 -41 -102 -42
-109 -21 -117 15 -5 19 -1 68 84 33 58 100 130 121 130 22 0 21 -8 -15 -87
-51 -112 -51 -111 -29 -123 18 -9 23 -4 50 52 33 69 103 158 126 158 18 0 18
2 -10 -61 -37 -83 -41 -114 -17 -138 20 -20 41 -20 69 2 19 15 14 29 -8 22
-34 -11 -34 18 0 95 33 74 34 112 5 124 -26 10 -64 -12 -92 -53 -32 -46 -47
-53 -32 -15 11 31 4 60 -16 68 -25 9 -61 -14 -96 -60 -18 -24 -34 -43 -35 -41
-1 1 3 22 9 45 9 36 9 45 -3 52 -20 13 -34 12 -47 -1z"/>
<path d="M1891 1181 c-12 -8 -12 -12 -2 -25 11 -13 7 -29 -19 -97 -18 -48 -29
-91 -26 -104 7 -28 39 -37 65 -18 24 16 28 38 6 29 -29 -11 -28 24 4 100 18
42 31 86 29 98 -3 23 -34 32 -57 17z"/>
<path d="M2089 1167 c-101 -54 -126 -228 -34 -237 44 -5 65 1 96 27 67 57 90
163 44 208 -30 31 -50 31 -106 2z m79 -40 c8 -68 -63 -189 -102 -174 -35 14
-9 132 42 190 24 27 56 18 60 -16z"/>
</g>
</svg>
